P3
4 4
255
  0   0   0    255 255 255      0   0   0    255 255 255
255   0   0      0 255   0      0   0 255    255 255 255
255 255 255    255 255   0      0 255 255    255   0 255
255 255 255    200 200 200    100 100 100     50  50  50
